<?xml version="1.0" encoding="iso-8859-1"?>
<!-- Generator: Adobe Illustrator 19.0.0, SVG Export Plug-In . SVG Version: 6.00 Build 0)  -->
<svg version="1.1" id="Capa_1" xmlns="http://www.w3.org/2000/svg" xmlns:xlink="http://www.w3.org/1999/xlink" x="0px" y="0px"
	 viewBox="0 0 912 912" style="enable-background:new 0 0 512 512;" xml:space="preserve">
<path style="fill:#61DE56;" d="M437.019,74.981C388.668,26.63,324.381,0.001,256.002,0.001
	C187.621,0.002,123.334,26.63,74.98,74.982C26.629,123.334,0,187.621,0,256.001S26.629,388.667,74.98,437.02
	C123.334,485.371,187.621,512,256.002,512c68.379,0,132.666-26.629,181.017-74.98C485.371,388.668,512,324.381,512,256.001
	S485.371,123.334,437.019,74.981z"/>
<path style="fill:#13C37B;" d="M437.019,74.981C388.666,26.629,324.379,0,256,0l0,0v512l0,0c68.381,0,132.668-26.628,181.019-74.979
	C485.371,388.668,512,324.381,512,256C512,187.62,485.371,123.333,437.019,74.981z"/>
<path style="fill:#F2F2F2;" d="M400.6,241.001H271V111.4c0-8.284-6.715-15-15-15c-8.283,0-15,6.716-15,15v129.601H111.4
	c-8.283,0-15,6.716-15,15s6.717,15,15,15H241v129.6c0,8.284,6.715,15,15,15c8.283,0,15-6.716,15-15v-129.6h129.6
	c8.283,0,15-6.716,15-15C415.6,247.717,408.883,241.001,400.6,241.001z"/>
<path style="fill:#D9D9D9;" d="M400.6,241.001H271V111.4c0-8.284-6.715-15-15-15l0,0v319.2c8.283,0,15-6.716,15-15V271h129.6
	c8.283,0,15-6.716,15-15C415.6,247.717,408.883,241.001,400.6,241.001z"/>
<g>
</g>
<g>
</g>
<g>
</g>
<g>
</g>
<g>
</g>
<g>
</g>
<g>
</g>
<g>
</g>
<g>
</g>
<g>
</g>
<g>
</g>
<g>
</g>
<g>
</g>
<g>
</g>
<g>
</g>
</svg>
