<svg viewBox="0 0 1512 1512" xmlns="http://www.w3.org/2000/svg"><path d="m511.917969 256c0-141.386719-114.597657-256-255.957031-256-141.363282 0-255.960938 114.613281-255.960938 256s114.597656 256 255.960938 256c141.359374 0 255.957031-114.613281 255.957031-256zm0 0" fill="#5ddcf9"/><path d="m393.109375 39.824219c44.691406 46.089843 72.214844 108.925781 72.214844 178.203125 0 141.382812-114.59375 256-255.957031 256-50.460938 0-97.503907-14.613282-137.148438-39.824219 46.519531 47.972656 111.644531 77.796875 183.742188 77.796875 141.359374 0 255.957031-114.613281 255.957031-256 0-90.917969-47.390625-170.757812-118.808594-216.175781zm0 0" fill="#43c5ff"/><path d="m138.523438 295.695312c0 13.9375 11.296874 25.238282 25.234374 25.238282h35.769532c-11.191406 27.996094-11.144532 50.53125-10.992188 55.222656-.125.84375-.1875 1.710938-.1875 2.589844v1.171875c.75 24.550781 8.265625 32.066406 17.917969 35.648437 9.898437 0 17.921875-8.023437 17.921875-17.921875v-1.792969c.097656-6.136718 8.71875-18.796874 8.71875-18.796874l65.757812-66.515626 1.109376-1.363281 30-83.480469-30-52.929687c0-2.515625-2.039063-4.550781-4.550782-4.550781h-123.800781c-8.421875 0-15.582031 6.144531-16.859375 14.472656-4.867188 31.839844-16.039062 105.703125-16.039062 113.007812zm0 0" fill="#e3faff"/><path d="m314.054688 158.101562h45.058593c7.886719 0 14.28125 6.390626 14.28125 14.28125v135.28125c0 7.890626-6.394531 14.285157-14.28125 14.285157h-45.058593c-7.886719 0-14.28125-6.394531-14.28125-14.285157v-135.28125c0-7.886718 6.394531-14.28125 14.28125-14.28125zm0 0" fill="#407fff"/><path d="m359.113281 287.429688h-45.058593c-7.886719 0-14.28125-6.394532-14.28125-14.285157v34.519531c0 7.890626 6.394531 14.285157 14.28125 14.285157h45.058593c7.886719 0 14.28125-6.394531 14.28125-14.285157v-34.519531c0 7.890625-6.390625 14.285157-14.28125 14.285157zm0 0" fill="#406aef"/><path d="m295.222656 168.214844h-27.203125v77.480468c0 28.601563-11.25 56.054688-31.320312 76.425782l-35.546875 36.089844s-8.621094 12.660156-8.71875 18.796874v1.789063c0 3.90625-1.261719 7.507813-3.382813 10.449219 2.195313 17.238281 8.914063 23.242187 17.214844 26.320312 9.894531 0 17.917969-8.023437 17.917969-17.921875v-1.789062c.101562-6.136719 8.71875-18.796875 8.71875-18.796875l65.761718-66.515625 1.109376-1.367188v-136.410156c0-2.515625-2.039063-4.550781-4.550782-4.550781zm0 0" fill="#ccf4ff"/></svg>