<svg height="512pt" viewBox="0 -44 512.00049 512" width="512pt" xmlns="http://www.w3.org/2000/svg"><path d="m256.003906 342.578125s-21.382812 30.070313-49.261718 48.105469c8.578124 19.261718 27.402343 32.636718 49.261718 32.636718 21.855469 0 40.679688-13.378906 49.257813-32.636718-27.878907-18.035156-49.257813-48.105469-49.257813-48.105469zm0 0" fill="#915039"/><path d="m230.402344 396.585938c-1.859375-3.121094-1.054688-7.164063 1.902344-9.277344 14.011718-10.019532 26.027343-22.574219 34-31.835938-6.488282-7.539062-10.304688-12.894531-10.304688-12.894531s-21.378906 30.070313-49.257812 48.109375c8.578124 19.257812 27.402343 32.632812 49.257812 32.632812 3.523438 0 6.96875-.351562 10.304688-1.015624-15.167969-3.019532-28.085938-12.570313-35.902344-25.71875zm0 0" fill="#7f4330"/><path d="m256.003906 342.578125s-9.953125 13.992187-25.128906 28.617187c15.699219 8.511719 34.546875 8.515626 50.257812 0-15.175781-14.621093-25.128906-28.617187-25.128906-28.617187zm0 0" fill="#f45858"/><path d="m245.6875 376.550781c8.253906-7.339843 15.328125-14.933593 20.617188-21.078125-4.484376-5.207031-8.351563-10.171875-10.300782-12.894531 0 .222656-5.863281 7.585937-6.007812 7.765625-5.691406 6.996094-12.316406 14.296875-19.121094 20.851562 4.589844 2.488282 9.566406 4.308594 14.8125 5.355469zm0 0" fill="#e84949"/><path d="m433.074219 236.109375c-45.007813-64.066406-64.542969-205.839844-64.636719-206.359375-3.074219-2.074219-6.28125-3.988281-9.648438-5.691406-56.308593-28.523438-102.785156-23.761719-102.785156-23.761719s-46.480468-4.761719-102.789062 23.761719c-3.367188 1.703125-6.574219 3.621094-9.652344 5.695312-.117188.636719-19.652344 142.324219-64.636719 206.355469-5.824219 8.292969-14.914062 12.300781-23.890625 12.097656-2.757812 9.75-4.609375 20.628907-4.609375 32.273438 0 54.273437 66.335938 83.5625 66.335938 83.5625h1.878906c-12.089844-44.386719 36.460937-99.375 86.191406-130.175781-.554687-2.859376.5-5.949219 3.070313-7.804688 9.453125-6.828125 27.480468-17.453125 48.101562-17.453125 20.617188 0 38.644532 10.625 48.097656 17.453125 2.570313 1.855469 3.625 4.949219 3.070313 7.804688 49.730469 30.800781 98.28125 85.789062 86.191406 130.175781h1.878907s66.335937-29.289063 66.335937-83.5625c0-11.644531-1.851563-22.523438-4.605469-32.273438-8.980468.203125-18.070312-3.804687-23.898437-12.097656zm0 0" fill="#f6e1c6"/><path d="m327.777344 233.863281c.554687-2.855469-.5-5.945312-3.070313-7.800781-9.457031-6.828125-27.480469-17.453125-48.101562-17.453125-3.519531 0-6.960938.316406-10.300781.863281 16.21875 2.660156 29.957031 10.929688 37.796874 16.589844 2.570313 1.855469 3.621094 4.945312 3.070313 7.800781 49.730469 30.804688 98.28125 85.792969 86.191406 130.179688h1.878907s9.089843-4.015625 20.535156-11.820313c1.800781-41.964844-42.601563-90.238281-88-118.359375zm0 0" fill="#e2c8ac"/><path d="m71.03125 280.480469c0-5.558594.421875-10.941407 1.164062-16.113281 1.152344-8.0625 6.417969-15.097657 14.054688-17.945313 5.117188-1.902344 9.785156-5.335937 13.28125-10.3125 37.992188-54.082031 57.832031-163.558594 63.152344-196.660156 1.058594-6.570313 5.105468-12.328125 11.035156-15.339844.035156-.019531.066406-.035156.101562-.050781 40.402344-20.464844 75.742188-23.792969 92.484376-24.042969-6.589844-.0976562-10.300782.28125-10.300782.28125s-46.480468-4.761719-102.789062 23.761719c-3.367188 1.703125-6.574219 3.621094-9.648438 5.695312-.121094.636719-19.65625 142.324219-64.640625 206.355469-5.824219 8.292969-14.914062 12.300781-23.890625 12.097656-2.757812 9.75-4.605468 20.628907-4.605468 32.273438 0 54.273437 66.332031 83.5625 66.332031 83.5625h1.882812c-1.054687-3.867188-1.636719-7.816407-1.808593-11.820313-19.484376-13.285156-45.804688-37.554687-45.804688-71.742187zm0 0" fill="#e2c8ac"/><path d="m307.171875 233.867188c-.292969 1.507812-1.027344 2.953124-2.238281 4.113281-25.351563 24.242187-48.933594 28.570312-48.933594 28.570312s-23.578125-4.328125-48.929688-28.570312c-1.214843-1.160157-1.945312-2.605469-2.238281-4.113281-59.113281 36.613281-116.570312 107.402343-72.480469 153.933593 42.9375 45.316407 99.253907-13.226562 117.59375-35.027343 3.167969-3.765626 8.945313-3.765626 12.109376 0 18.339843 21.800781 74.660156 80.34375 117.597656 35.027343 44.089844-46.53125-13.367188-117.320312-72.480469-153.933593zm0 0" fill="#a0634a"/><path d="m152.957031 387.800781c-40.785156-43.046875 5.328125-106.839843 59.257813-145.148437-1.703125-1.46875-3.417969-3.023438-5.144532-4.671875-1.214843-1.160157-1.945312-2.605469-2.238281-4.117188-59.113281 36.617188-116.570312 107.40625-72.480469 153.9375 14.699219 15.511719 30.964844 18.851563 46.742188 15.660157-8.964844-1.996094-17.804688-6.867188-26.136719-15.660157zm0 0" fill="#915039"/><path d="m263.726562 354.734375v-90.441406c-4.835937 1.726562-7.726562 2.257812-7.726562 2.257812s-2.890625-.53125-7.726562-2.257812v90.441406c.585937-.679687 1.148437-1.339844 1.671874-1.964844 3.167969-3.761719 8.945313-3.761719 12.109376 0 .527343.628907 1.085937 1.285157 1.671874 1.964844zm0 0" fill="#915039"/><path d="m304.53125 226.21875c-9.539062-6.890625-27.726562-17.609375-48.527344-17.609375-20.804687 0-38.992187 10.71875-48.53125 17.609375-3.964844 2.863281-4.375 8.640625-.839844 12.023438 25.578126 24.457031 49.371094 28.824218 49.371094 28.824218s23.789063-4.367187 49.367188-28.824218c3.535156-3.382813 3.125-9.160157-.839844-12.023438zm0 0" fill="#915039"/><path d="m368.433594 29.738281s19.523437 142.144531 64.640625 206.371094c11.695312 16.648437 36.539062 16.035156 47.238281-1.269531l25.308594-40.933594c10.300781-16.660156 7.941406-38.183594-5.726563-52.207031-30.625-31.417969-86.601562-117.625-131.460937-111.960938zm0 0" fill="#a0634a"/><path d="m453.679688 236.109375c-41.082032-58.480469-60.941407-181.546875-64.164063-203.097656-7.199219-2.863281-14.269531-4.132813-21.082031-3.269531 0 0 19.523437 142.140624 64.640625 206.367187 7.960937 11.332031 22.011719 14.660156 33.546875 10.175781-4.980469-1.929687-9.523438-5.3125-12.941406-10.175781zm0 0" fill="#915039"/><path d="m143.566406 29.738281s-19.523437 142.144531-64.640625 206.371094c-11.695312 16.648437-36.539062 16.035156-47.238281-1.269531l-25.308594-40.933594c-10.296875-16.660156-7.941406-38.183594 5.726563-52.207031 30.625-31.417969 86.601562-117.625 131.460937-111.960938zm0 0" fill="#a0634a"/><path d="m52.292969 234.839844-25.308594-40.933594c-10.296875-16.660156-7.941406-38.183594 5.726563-52.207031 25.976562-26.648438 70.183593-92.695313 110.378906-108.6875.316406-2.117188.476562-3.273438.476562-3.273438-44.859375-5.664062-100.835937 80.542969-131.460937 111.960938-13.667969 14.023437-16.023438 35.546875-5.726563 52.207031l25.308594 40.933594c7.574219 12.246094 22.230469 16.121094 34.296875 11.445312-5.414063-2.101562-10.273437-5.917968-13.691406-11.445312zm0 0" fill="#915039"/><path d="m345.296875 175.71875c0 10.171875-8.246094 18.417969-18.417969 18.417969s-18.414062-8.246094-18.414062-18.417969c0-10.167969 8.242187-18.414062 18.414062-18.414062s18.417969 8.246093 18.417969 18.414062zm0 0" fill="#525468"/><path d="m203.539062 175.71875c0 10.171875-8.242187 18.417969-18.414062 18.417969s-18.417969-8.246094-18.417969-18.417969c0-10.167969 8.246094-18.414062 18.417969-18.414062s18.414062 8.246093 18.414062 18.414062zm0 0" fill="#525468"/><path d="m227.753906 238.242188c-3.535156-3.382813-3.125-9.160157.839844-12.023438 7.882812-5.695312 21.675781-14 37.96875-16.710938-3.421875-.570312-6.949219-.898437-10.558594-.898437-20.804687 0-38.992187 10.71875-48.53125 17.609375-3.964844 2.863281-4.375 8.640625-.839844 12.023438 25.578126 24.457031 49.371094 28.828124 49.371094 28.828124s4.035156-.746093 10.558594-3.320312c-9.332031-3.683594-23.757812-11.117188-38.808594-25.507812zm0 0" fill="#7f4330"/><path d="m329.582031 175.71875c0-6.238281 3.109375-11.742188 7.855469-15.070312-2.988281-2.101563-6.625-3.34375-10.558594-3.34375-10.171875 0-18.414062 8.246093-18.414062 18.414062 0 10.171875 8.242187 18.417969 18.414062 18.417969 3.933594 0 7.570313-1.242188 10.558594-3.34375-4.742188-3.328125-7.855469-8.832031-7.855469-15.074219zm0 0" fill="#3e4151"/><path d="m195.683594 160.648438c-2.992188-2.101563-6.628906-3.34375-10.558594-3.34375-10.171875 0-18.417969 8.246093-18.417969 18.414062 0 10.171875 8.246094 18.417969 18.417969 18.417969 3.929688 0 7.566406-1.242188 10.558594-3.34375-10.46875-7.347657-10.472656-22.796875 0-30.144531zm0 0" fill="#3e4151"/><g fill="#af7561"><path d="m318.152344 304.390625c-4.265625 0-7.730469-3.457031-7.730469-7.726563 0-4.265624 3.453125-7.726562 7.71875-7.726562h.011719c4.265625 0 7.726562 3.457031 7.726562 7.726562 0 4.265626-3.457031 7.726563-7.726562 7.726563zm0 0"/><path d="m344.65625 336.5c-4.269531 0-7.734375-3.460938-7.734375-7.726562 0-4.269532 3.457031-7.730469 7.722656-7.730469h.011719c4.265625 0 7.726562 3.460937 7.726562 7.730469 0 4.265624-3.460937 7.726562-7.726562 7.726562zm0 0"/><path d="m326.917969 367.84375c-4.265625 0-7.730469-3.460938-7.730469-7.726562 0-4.269532 3.453125-7.726563 7.722656-7.726563h.007813c4.269531 0 7.726562 3.457031 7.726562 7.726563 0 4.265624-3.457031 7.726562-7.726562 7.726562zm0 0"/><path d="m193.769531 304.390625c-4.265625 0-7.730469-3.457031-7.730469-7.726563 0-4.265624 3.453126-7.726562 7.71875-7.726562h.011719c4.265625 0 7.726563 3.457031 7.726563 7.726562 0 4.265626-3.457032 7.726563-7.726563 7.726563zm0 0"/><path d="m167.265625 336.5c-4.265625 0-7.730469-3.460938-7.730469-7.726562 0-4.269532 3.453125-7.730469 7.722656-7.730469h.007813c4.269531 0 7.730469 3.460937 7.730469 7.730469 0 4.265624-3.460938 7.726562-7.730469 7.726562zm0 0"/><path d="m185.003906 367.84375c-4.269531 0-7.734375-3.460938-7.734375-7.726562 0-4.269532 3.457031-7.726563 7.722657-7.726563h.011718c4.265625 0 7.726563 3.457031 7.726563 7.726563 0 4.265624-3.460938 7.726562-7.726563 7.726562zm0 0"/></g></svg>