<?xml version="1.0" encoding="iso-8859-1"?>
<!-- Generator: Adobe Illustrator 19.0.0, SVG Export Plug-In . SVG Version: 6.00 Build 0)  -->
<svg version="1.1" id="Capa_1" xmlns="http://www.w3.org/2000/svg" xmlns:xlink="http://www.w3.org/1999/xlink" x="0px" y="0px"
	 viewBox="0 0 950 950" style="enable-background:new 0 0 512 512;" xml:space="preserve">
<circle style="fill:#FFDC00;" cx="256" cy="256" r="256"/>
<path style="fill:#FFC000;" d="M209.087,410.085l97.002,97.002C423.491,483.797,512,380.241,512,256
	c0-2.596-0.051-5.179-0.127-7.756L404.602,140.973L209.087,410.085z"/>
<polygon style="fill:#005C83;" points="404.602,140.973 255.667,140.973 107.398,140.973 107.398,194.875 107.398,194.875 
	209.087,320.454 302.913,320.454 404.602,194.875 404.602,194.875 "/>
<rect x="107.4" y="140.97" style="fill:#0074A3;" width="297.2" height="53.902"/>
<rect x="255.67" y="140.97" style="fill:#005C83;" width="148.94" height="53.902"/>
<polygon style="fill:#00263F;" points="404.602,194.875 255.667,194.875 255.667,320.454 302.913,320.454 "/>
<polygon style="fill:#0074A3;" points="209.087,410.085 302.913,443.9 302.913,320.454 209.087,320.454 "/>
<polygon style="fill:#005C83;" points="302.913,320.454 255.667,320.454 255.667,426.872 302.913,443.9 "/>
<g>
</g>
<g>
</g>
<g>
</g>
<g>
</g>
<g>
</g>
<g>
</g>
<g>
</g>
<g>
</g>
<g>
</g>
<g>
</g>
<g>
</g>
<g>
</g>
<g>
</g>
<g>
</g>
<g>
</g>
</svg>
