<svg id="Layer_1" height="312" viewBox="0 0 150 150" width="512" xmlns="http://www.w3.org/2000/svg" data-name="Layer 1"><circle cx="75" cy="75" fill="#efc84a" r="64"/><path d="m81.539 81.54h6.474v6.474h-6.474z" fill="#2f4859" transform="matrix(.707 -.707 .707 .707 -35.116 84.777)"/><circle cx="64.052" cy="64.515" fill="#ebf0f3" opacity=".25" r="26.57"/><path d="m43.353 43.353a28.729 28.729 0 1 0 40.63 0 28.732 28.732 0 0 0 -40.63 0zm36.187 36.186a22.442 22.442 0 1 1 0-31.743 22.441 22.441 0 0 1 0 31.743z" fill="#3a556a"/><rect fill="#3a556a" height="35.498" rx="1.083" transform="matrix(.707 -.707 .707 .707 -40.773 98.433)" width="12.802" x="92.031" y="80.684"/><path d="m81.781 87.098h12.802v2.168h-12.802z" fill="#e1e6e9" transform="matrix(.707 -.707 .707 .707 -36.526 88.182)"/><g fill="#fff" opacity=".25"><circle cx="66.488" cy="52.845" r="5.217" transform="matrix(.383 -.924 .924 .383 -7.779 94.049)"/><circle cx="65.851" cy="63.209" r="2.609" transform="matrix(.383 -.924 .924 .383 -17.747 99.858)"/></g></svg>